<svg xmlns="http://www.w3.org/2000/svg" width="35" height="35" viewBox="0 0 35 35" fill="none">
  <path d="M17.5 2.1875C21.5611 2.1875 25.4559 3.80078 28.3276 6.67243C31.1992 9.54408 32.8125 13.4389 32.8125 17.5C32.8125 21.5611 31.1992 25.4559 28.3276 28.3276C25.4559 31.1992 21.5611 32.8125 17.5 32.8125C13.4389 32.8125 9.54408 31.1992 6.67243 28.3276C3.80078 25.4559 2.1875 21.5611 2.1875 17.5C2.1875 13.4389 3.80078 9.54408 6.67243 6.67243C9.54408 3.80078 13.4389 2.1875 17.5 2.1875ZM15.5925 20.5209L12.1909 17.1172C12.069 16.9952 11.9242 16.8985 11.7649 16.8325C11.6056 16.7665 11.4348 16.7326 11.2623 16.7326C11.0899 16.7326 10.9191 16.7665 10.7598 16.8325C10.6005 16.8985 10.4557 16.9952 10.3337 17.1172C10.0875 17.3635 9.94911 17.6975 9.94911 18.0458C9.94911 18.3941 10.0875 18.7281 10.3337 18.9744L14.665 23.3056C14.7866 23.4282 14.9313 23.5255 15.0906 23.5918C15.25 23.6582 15.4209 23.6924 15.5936 23.6924C15.7662 23.6924 15.9372 23.6582 16.0966 23.5918C16.2559 23.5255 16.4006 23.4282 16.5222 23.3056L25.4909 14.3347C25.6145 14.2132 25.7128 14.0685 25.7802 13.9089C25.8476 13.7493 25.8827 13.5779 25.8835 13.4047C25.8843 13.2314 25.8508 13.0597 25.7849 12.8995C25.719 12.7392 25.622 12.5936 25.4996 12.471C25.3772 12.3484 25.2317 12.2513 25.0715 12.1852C24.9113 12.1192 24.7397 12.0855 24.5664 12.0861C24.3932 12.0867 24.2217 12.1216 24.062 12.1888C23.9023 12.2559 23.7575 12.3541 23.6359 12.4775L15.5925 20.5209Z" fill="#59C833"/>
</svg>