<svg width="61" height="61" viewBox="0 0 61 61" fill="none" xmlns="http://www.w3.org/2000/svg">
<g clip-path="url(#clip0_2111_1932)">
<path d="M30.2381 0.261641C22.2837 0.331058 14.6757 3.56023 9.10466 9.23312C3.52786 14.9083 0.433178 22.5659 0.501054 30.5223C0.570458 38.4753 3.80104 46.0833 9.4749 51.6581C15.1441 57.2329 22.8073 60.3288 30.7617 60.2594C38.7161 60.1899 46.3241 56.9608 51.8952 51.2879C57.4709 45.6149 60.5682 37.9517 60.4988 29.9987C60.4294 22.0457 57.1988 14.4377 51.5249 8.86293C45.8557 3.28813 38.1925 0.192225 30.2381 0.261641Z" fill="url(#paint0_linear_2111_1932)"/>
<path d="M14.0774 30.086C22.7907 26.1998 28.5998 23.637 31.5048 22.398C39.8086 18.8599 41.5329 18.243 42.6624 18.2127C42.9108 18.2066 43.4644 18.2631 43.8279 18.5518C44.1301 18.7952 44.2173 19.1273 44.2616 19.3606C44.3011 19.5937 44.3573 20.1253 44.3187 20.5409C43.9101 25.2884 42.056 36.8166 41.1086 42.1384C40.7111 44.39 39.888 45.151 39.0871 45.2316C37.3448 45.4071 36.0116 44.1071 34.3145 43.0161C31.6604 41.3081 30.1604 40.244 27.5817 38.5775C24.6023 36.6516 26.5148 35.5619 28.1869 33.7941C28.6235 33.3313 36.2404 26.2826 36.3802 25.6481C36.3982 25.5687 36.4144 25.2732 36.2349 25.1191C36.0601 24.9646 35.8028 25.0203 35.6157 25.0641C35.349 25.1264 31.1595 27.9512 23.0329 33.5381C21.8448 34.3707 20.7655 34.7809 19.7904 34.7683C18.7215 34.7547 16.654 34.1901 15.1169 33.7056C13.2366 33.1112 11.7385 32.8013 11.8607 31.7629C11.9217 31.2223 12.6621 30.6632 14.0774 30.086Z" fill="white"/>
</g>
<defs>
<linearGradient id="paint0_linear_2111_1932" x1="3000.13" y1="-25.6562" x2="3052.48" y2="5974.12" gradientUnits="userSpaceOnUse">
<stop stop-color="#2AABEE"/>
<stop offset="1" stop-color="#229ED9"/>
</linearGradient>
<clipPath id="clip0_2111_1932">
<rect x="0.239258" y="0.523438" width="60" height="60" rx="10" transform="rotate(-0.5 0.239258 0.523438)" fill="white"/>
</clipPath>
</defs>
</svg>
