<svg xmlns="http://www.w3.org/2000/svg" width="35" height="35" viewBox="0 0 35 35" fill="none">
<path d="M17.5013 2.91797C9.4513 2.91797 2.91797 9.4513 2.91797 17.5013C2.91797 25.5513 9.4513 32.0846 17.5013 32.0846C25.5513 32.0846 32.0846 25.5513 32.0846 17.5013C32.0846 9.4513 25.5513 2.91797 17.5013 2.91797ZM10.7201 26.9805C12.6305 25.6096 14.9638 24.793 17.5013 24.793C20.0388 24.793 22.3721 25.6096 24.2826 26.9805C22.3721 28.3513 20.0388 29.168 17.5013 29.168C14.9638 29.168 12.6305 28.3513 10.7201 26.9805ZM26.4555 24.968C23.901 22.9638 20.7481 21.8746 17.5013 21.8746C14.2545 21.8746 11.1016 22.9638 8.54714 24.968C6.79264 22.8757 5.83216 20.2318 5.83464 17.5013C5.83464 11.0555 11.0555 5.83464 17.5013 5.83464C23.9471 5.83464 29.168 11.0555 29.168 17.5013C29.168 20.3451 28.1471 22.9409 26.4555 24.968Z" fill="#1E1D1D"/>
<path d="M17.4987 8.75C14.6841 8.75 12.3945 11.0396 12.3945 13.8542C12.3945 16.6687 14.6841 18.9583 17.4987 18.9583C20.3133 18.9583 22.6029 16.6687 22.6029 13.8542C22.6029 11.0396 20.3133 8.75 17.4987 8.75ZM17.4987 16.0417C16.2883 16.0417 15.3112 15.0646 15.3112 13.8542C15.3112 12.6437 16.2883 11.6667 17.4987 11.6667C18.7091 11.6667 19.6862 12.6437 19.6862 13.8542C19.6862 15.0646 18.7091 16.0417 17.4987 16.0417Z" fill="#1E1D1D"/>
</svg>