<svg xmlns="http://www.w3.org/2000/svg" width="36" height="35" viewBox="0 0 36 35" fill="none">
<path d="M18 32.082C19.65 32.082 21 30.7695 21 29.1654H15C15 30.7695 16.35 32.082 18 32.082ZM27 23.332V16.0404C27 11.5633 24.555 7.81536 20.25 6.8237V5.83203C20.25 4.62161 19.245 3.64453 18 3.64453C16.755 3.64453 15.75 4.62161 15.75 5.83203V6.8237C11.46 7.81536 9 11.5487 9 16.0404V23.332L6 26.2487V27.707H30V26.2487L27 23.332ZM24 24.7904H12V16.0404C12 12.4237 14.265 9.47786 18 9.47786C21.735 9.47786 24 12.4237 24 16.0404V24.7904Z" fill="#1E1D1D"/>
</svg>