<svg xmlns="http://www.w3.org/2000/svg" width="26" height="25" viewBox="0 0 26 25" fill="none">
<path d="M7.15 1.5L7.15119 1.5C8.02584 1.49931 8.89676 1.73423 9.69207 2.19702C10.4888 2.66062 11.1915 3.34293 11.7289 4.20055C12.003 4.63804 12.4828 4.90382 12.9991 4.90413C13.5154 4.90444 13.9955 4.63923 14.2701 4.20208C15.3285 2.51747 17.0177 1.5 18.85 1.5C21.8144 1.5 24.5 4.25036 24.5 8.01142C24.5 11.5023 22.6424 14.9845 20.0823 17.8814C17.7372 20.535 14.9772 22.4986 13 23.3795C11.0228 22.4986 8.26284 20.535 5.91773 17.8814C3.35761 14.9845 1.5 11.5023 1.5 8.01142C1.5 4.25036 4.18557 1.5 7.15 1.5Z" stroke="#1E1D1D" stroke-width="3" stroke-linecap="round" stroke-linejoin="round"/>
</svg>