<svg xmlns="http://www.w3.org/2000/svg" width="60" height="60" fill="none">
<path stroke="#000" stroke-linecap="round" stroke-linejoin="round" stroke-width="3" d="M37.792 17.125H23.208c-1.15 0-2.083.933-2.083 2.083v14.584c0 1.15.933 2.083 2.083 2.083h14.584c1.15 0 2.083-.933 2.083-2.083V19.208c0-1.15-.933-2.083-2.083-2.083Z"/>
<path stroke="#000" stroke-linecap="round" stroke-linejoin="round" stroke-width="3" d="M26.854 24.417a1.562 1.562 0 1 0 0-3.125 1.562 1.562 0 0 0 0 3.125ZM39.875 29.625l-5.208-5.208-11.459 11.458"/>
<path fill="#000" fill-rule="evenodd" d="M10 4h40a6 6 0 0 1 6 6v31.364a15.749 15.749 0 0 1 4 4.148V10c0-5.523-4.477-10-10-10H10C4.477 0 0 4.477 0 10v40c0 5.523 4.477 10 10 10h20.26a13.805 13.805 0 0 1-1.618-4H10a6 6 0 0 1-6-6V10a6 6 0 0 1 6-6Z" clip-rule="evenodd"/></svg>