<svg xmlns="http://www.w3.org/2000/svg" width="60" height="60" fill="none"><path stroke="#000" stroke-linecap="round" stroke-linejoin="round" stroke-width="3" d="M37.792 17.125H23.208c-1.15 0-2.083.933-2.083 2.083v14.584c0 1.15.933 2.083 2.083 2.083h14.584c1.15 0 2.083-.933 2.083-2.083V19.208c0-1.15-.933-2.083-2.083-2.083Z"/><path stroke="#000" stroke-linecap="round" stroke-linejoin="round" stroke-width="3" d="M26.854 24.417a1.562 1.562 0 1 0 0-3.125 1.562 1.562 0 0 0 0 3.125ZM39.875 29.625l-5.208-5.208-11.459 11.458"/><mask id="a" fill="#fff"><path fill-rule="evenodd" d="M10 4h40a6 6 0 0 1 6 6v31.364a15.749 15.749 0 0 1 4 4.148V10c0-5.523-4.477-10-10-10H10C4.477 0 0 4.477 0 10v40c0 5.523 4.477 10 10 10h20.26a13.805 13.805 0 0 1-1.618-4H10a6 6 0 0 1-6-6V10a6 6 0 0 1 6-6Z" clip-rule="evenodd"/></mask><path fill="#000" fill-rule="evenodd" d="M10 4h40a6 6 0 0 1 6 6v31.364a15.749 15.749 0 0 1 4 4.148V10c0-5.523-4.477-10-10-10H10C4.477 0 0 4.477 0 10v40c0 5.523 4.477 10 10 10h20.26a13.805 13.805 0 0 1-1.618-4H10a6 6 0 0 1-6-6V10a6 6 0 0 1 6-6Z" clip-rule="evenodd"/><path fill="#000" d="M56 41.364h-4v2.05l1.664 1.197L56 41.364Zm4 4.148L56.652 47.7 64 58.944V45.512h-4ZM30.26 60v4h7.056l-3.623-6.054L30.26 60Zm-1.618-4 3.898-.896L31.827 52h-3.185v4ZM50 0H10v8h40V0Zm10 10c0-5.523-4.477-10-10-10v8a2 2 0 0 1 2 2h8Zm0 31.364V10h-8v31.364h8Zm-6.336 3.247a11.752 11.752 0 0 1 2.988 3.089l6.696-4.377a19.751 19.751 0 0 0-5.012-5.206l-4.672 6.494Zm10.336.9V10h-8v35.512h8ZM64 10c0-7.732-6.268-14-14-14v8a6 6 0 0 1 6 6h8ZM50-4H10v8h40v-8ZM10-4C2.268-4-4 2.268-4 10h8a6 6 0 0 1 6-6v-8ZM-4 10v40h8V10h-8Zm0 40c0 7.732 6.268 14 14 14v-8a6 6 0 0 1-6-6h-8Zm14 14h20.26v-8H10v8Zm23.693-6.054a9.805 9.805 0 0 1-1.153-2.842l-7.797 1.792a17.807 17.807 0 0 0 2.085 5.158l6.865-4.108ZM10 60h18.642v-8H10v8ZM0 50c0 5.523 4.477 10 10 10v-8a2 2 0 0 1-2-2H0Zm0-40v40h8V10H0ZM10 0C4.477 0 0 4.477 0 10h8a2 2 0 0 1 2-2V0Z" mask="url(#a)"/></svg>