<svg xmlns="http://www.w3.org/2000/svg" width="60" height="60" fill="none"><path fill="#000" d="M28.022 38.871a.56.56 0 0 1-.414-.16.56.56 0 0 1-.161-.415V26.382h-4.094a.56.56 0 0 1-.414-.16.613.613 0 0 1-.161-.415v-2.46a.56.56 0 0 1 .16-.415.56.56 0 0 1 .415-.16h12.374a.56.56 0 0 1 .414.16.56.56 0 0 1 .16.414v2.461a.613.613 0 0 1-.16.414.56.56 0 0 1-.414.161h-4.094v11.914a.56.56 0 0 1-.161.414.56.56 0 0 1-.414.161h-3.036Z"/><path fill="#000" fill-rule="evenodd" d="M10 4h40a6 6 0 0 1 6 6v35.443l3.284 2.278c.249.172.488.354.716.545V10c0-5.523-4.477-10-10-10H10C4.477 0 0 4.477 0 10v40c0 5.523 4.477 10 10 10h19.857a10.047 10.047 0 0 1-.386-4H10a6 6 0 0 1-6-6V10a6 6 0 0 1 6-6Z" clip-rule="evenodd"/></svg>