<svg xmlns="http://www.w3.org/2000/svg" width="32" height="30" fill="none"><path fill="#EBFF00" d="m15.717 9.239-1.966 2.747-2.726-1.95c-1.498-1.072-2.72-1.96-2.714-1.968.003-.004.25.05.547.125l.533.135 1.525-.226 1.518-.226-.149-1.008c-.084-.554-.17-1.024-.185-1.048-.022-.023-1.654.225-3.628.553l-3.594.596.603 3.631.6 3.623 1.032-.17 1.031-.172-.25-1.502-.25-1.51-.27-.394a5.977 5.977 0 0 1-.31-.482c-.025-.056.95.614 2.684 1.855l2.713 1.941-1.966 2.748-1.965 2.748.923.66.923.66 4.577-6.396 4.576-6.397-.923-.66-.923-.661-1.966 2.748ZM16.756 15.498l-4.577 6.397.923.66.923.661 1.966-2.748 1.966-2.747 2.717 1.944c1.73 1.238 2.68 1.943 2.619 1.938a5.957 5.957 0 0 1-.557-.138l-.46-.128-1.51.25-1.502.25.17 1.03.172 1.031 3.623-.6 3.631-.603-.596-3.594c-.327-1.974-.62-3.598-.648-3.612-.028-.007-.5.064-1.052.163l-1.002.185.277 1.51.278 1.516.3.461c.167.256.298.473.295.477-.006.009-1.24-.861-2.739-1.933l-2.726-1.95 1.966-2.748 1.965-2.748-.923-.66-.923-.66-4.576 6.396Z"/></svg>