<svg xmlns="http://www.w3.org/2000/svg" width="60" height="60" fill="none"><path stroke="#000" stroke-width="4" d="M2.097 16.612h55.861v26.084H2.097zM2.097 10a8 8 0 0 1 8-8h39.861a8 8 0 0 1 8 8v6.05H2.098V10ZM57.935 49.987a8.012 8.012 0 0 1-8.064 7.945l-39.855-.27a7.988 7.988 0 0 1-7.936-8.054l.049-6.05 55.855.378-.049 6.05Z"/><path fill="#000" d="M10.555 54a.195.195 0 0 1-.144-.056.195.195 0 0 1-.056-.144v-4.288H8.9a.185.185 0 0 1-.136-.056.185.185 0 0 1-.056-.136v-.72c0-.059.019-.107.056-.144A.185.185 0 0 1 8.9 48.4h4.192c.059 0 .107.019.144.056a.195.195 0 0 1 .056.144v.72a.185.185 0 0 1-.056.136.195.195 0 0 1-.144.056h-1.448V53.8a.195.195 0 0 1-.056.144.195.195 0 0 1-.144.056h-.888Z"/><path stroke="#000" d="M15 48h1.5m1.5 0h-1.5m0 0v7H15h3"/><path fill="#000" d="M9.66 12a.195.195 0 0 1-.145-.056.195.195 0 0 1-.056-.144V7.512H8.003a.185.185 0 0 1-.136-.056.185.185 0 0 1-.056-.136V6.6c0-.059.019-.107.056-.144a.185.185 0 0 1 .136-.056h4.192c.059 0 .107.019.144.056a.195.195 0 0 1 .056.144v.72a.185.185 0 0 1-.056.136.195.195 0 0 1-.144.056h-1.448V11.8a.195.195 0 0 1-.056.144.195.195 0 0 1-.144.056H9.66Z"/><path stroke="#000" d="M14.104 6h1.5m1.5 0h-1.5m0 0v7h-1.5 3"/><path stroke="#000" stroke-linecap="round" stroke-linejoin="round" stroke-width="3" d="M35.833 23.375H24.167c-.92 0-1.667.709-1.667 1.583v11.084c0 .874.746 1.583 1.667 1.583h11.666c.92 0 1.667-.709 1.667-1.583V24.958c0-.874-.746-1.583-1.667-1.583Z"/><path stroke="#000" stroke-linecap="round" stroke-linejoin="round" stroke-width="2" d="M27.083 28.917c.69 0 1.25-.532 1.25-1.188 0-.655-.56-1.187-1.25-1.187s-1.25.532-1.25 1.188c0 .655.56 1.187 1.25 1.187ZM37.5 32.875l-4.167-3.958-9.166 8.708"/></svg>