<svg width="44" height="24" fill="none" xmlns="http://www.w3.org/2000/svg">
  <g clip-path="url(#a)" fill="#101010">
    <path d="M17.56 8.94 8.62 0 7.21 1.41l2.38 2.38-5.15 5.15a1.49 1.49 0 0 0 0 2.12l5.5 5.5c.29.29.68.44 1.06.44s.77-.15 1.06-.44l5.5-5.5c.59-.58.59-1.53 0-2.12ZM6.21 10 11 5.21 15.79 10H6.21ZM20 11.5s-2 2.17-2 3.5c0 1.1.9 2 2 2s2-.9 2-2c0-1.33-2-3.5-2-3.5ZM1 20h24v4H1v-4Z"/>
  </g>
  <path d="m39 16-3.464-6h6.928L39 16Z" fill="#101010"/>
  <defs>
    <clipPath id="a">
      <path fill="#fff" d="M1 0h24v24H1z"/>
    </clipPath>
  </defs>
</svg>
