<svg width="12" height="15" fill="none" xmlns="http://www.w3.org/2000/svg">
  <path d="M.264 15V.455h5.824c1.07 0 1.963.158 2.678.475.715.318 1.252.758 1.612 1.321.36.56.54 1.203.54 1.932 0 .568-.114 1.068-.341 1.499a2.94 2.94 0 0 1-.938 1.05 3.83 3.83 0 0 1-1.35.576v.142c.555.024 1.073.18 1.556.469.488.289.883.694 1.186 1.215.303.516.455 1.131.455 1.846 0 .772-.192 1.46-.575 2.067-.38.601-.94 1.077-1.684 1.427-.743.35-1.66.526-2.748.526H.264Zm3.075-2.514h2.508c.857 0 1.482-.164 1.875-.49.393-.332.59-.772.59-1.321 0-.403-.098-.758-.292-1.066a1.978 1.978 0 0 0-.831-.724c-.355-.175-.779-.263-1.271-.263H3.339v3.864Zm0-5.945h2.28c.422 0 .796-.073 1.122-.22.332-.151.592-.365.782-.64.194-.274.29-.603.29-.986 0-.526-.186-.95-.56-1.272-.37-.322-.895-.483-1.577-.483H3.34v3.601Z" fill="#101010"/>
</svg>
