<svg width="16" height="24" viewBox="0 0 16 24" fill="none" xmlns="http://www.w3.org/2000/svg">
<path d="M2.2642 19V4.45455H8.08807C9.15814 4.45455 10.0507 4.61316 10.7656 4.9304C11.4806 5.24763 12.018 5.68797 12.3778 6.25142C12.7377 6.81013 12.9176 7.45407 12.9176 8.18324C12.9176 8.75142 12.804 9.25095 12.5767 9.68182C12.3494 10.108 12.0369 10.4583 11.6392 10.733C11.2462 11.0028 10.7964 11.1946 10.2898 11.3082V11.4503C10.8438 11.474 11.3622 11.6302 11.8452 11.919C12.3329 12.2079 12.7282 12.6127 13.0312 13.1335C13.3343 13.6496 13.4858 14.2652 13.4858 14.9801C13.4858 15.7519 13.294 16.4408 12.9105 17.0469C12.5317 17.6482 11.9706 18.1241 11.2273 18.4744C10.4839 18.8248 9.56771 19 8.47869 19H2.2642ZM5.33949 16.4858H7.84659C8.7036 16.4858 9.3286 16.3224 9.72159 15.9957C10.1146 15.6643 10.3111 15.224 10.3111 14.6747C10.3111 14.2723 10.214 13.9171 10.0199 13.6094C9.82576 13.3016 9.54877 13.0601 9.18892 12.8849C8.83381 12.7098 8.41004 12.6222 7.91761 12.6222H5.33949V16.4858ZM5.33949 10.5412H7.61932C8.04072 10.5412 8.41477 10.4678 8.74148 10.321C9.07292 10.1695 9.33333 9.95644 9.52273 9.68182C9.71686 9.4072 9.81392 9.07812 9.81392 8.6946C9.81392 8.16903 9.62689 7.74527 9.25284 7.4233C8.88352 7.10133 8.35795 6.94034 7.67614 6.94034H5.33949V10.5412Z" fill="#101010"/>
</svg>
