<svg width="54" height="36" viewBox="0 0 54 36" fill="none" xmlns="http://www.w3.org/2000/svg">
<path d="M23.8701 35.5C23.0247 35.5 22.3166 35.22 21.7457 34.66C21.1728 34.1019 20.8864 33.4097 20.8864 32.5833C20.8864 31.7569 21.1728 31.0647 21.7457 30.5067C22.3166 29.9467 23.0247 29.6667 23.8701 29.6667H29.8376C30.683 29.6667 31.3922 29.9467 31.9651 30.5067C32.536 31.0647 32.8214 31.7569 32.8214 32.5833C32.8214 33.4097 32.536 34.1019 31.9651 34.66C31.3922 35.22 30.683 35.5 29.8376 35.5H23.8701ZM2.98376 6.33333C2.13836 6.33333 1.43022 6.05431 0.859325 5.49625C0.286442 4.93625 0 4.24306 0 3.41667C0 2.59028 0.286442 1.89708 0.859325 1.33708C1.43022 0.779028 2.13836 0.5 2.98376 0.5H50.724C51.5694 0.5 52.2775 0.779028 52.8484 1.33708C53.4213 1.89708 53.7078 2.59028 53.7078 3.41667C53.7078 4.24306 53.4213 4.93625 52.8484 5.49625C52.2775 6.05431 51.5694 6.33333 50.724 6.33333H2.98376ZM11.9351 20.9167C11.0897 20.9167 10.3805 20.6367 9.80764 20.0767C9.23674 19.5186 8.95129 18.8264 8.95129 18C8.95129 17.1736 9.23674 16.4804 9.80764 15.9204C10.3805 15.3624 11.0897 15.0833 11.9351 15.0833H41.7727C42.6181 15.0833 43.3263 15.3624 43.8971 15.9204C44.47 16.4804 44.7565 17.1736 44.7565 18C44.7565 18.8264 44.47 19.5186 43.8971 20.0767C43.3263 20.6367 42.6181 20.9167 41.7727 20.9167H11.9351Z" fill="#AC52D1"/>
</svg>
