<svg width="55" height="36" viewBox="0 0 55 36" fill="none" xmlns="http://www.w3.org/2000/svg">
<path d="M24.8213 35.5C23.9759 35.5 23.2677 35.22 22.6968 34.66C22.124 34.1019 21.8375 33.4097 21.8375 32.5833C21.8375 31.7569 22.124 31.0647 22.6968 30.5067C23.2677 29.9467 23.9759 29.6667 24.8213 29.6667H30.7888C31.6342 29.6667 32.3434 29.9467 32.9162 30.5067C33.4871 31.0647 33.7726 31.7569 33.7726 32.5833C33.7726 33.4097 33.4871 34.1019 32.9162 34.66C32.3434 35.22 31.6342 35.5 30.7888 35.5H24.8213ZM3.93494 6.33333C3.08954 6.33333 2.38139 6.05431 1.8105 5.49625C1.23761 4.93625 0.951172 4.24306 0.951172 3.41667C0.951172 2.59028 1.23761 1.89708 1.8105 1.33708C2.38139 0.779028 3.08954 0.5 3.93494 0.5H51.6752C52.5206 0.5 53.2287 0.779028 53.7996 1.33708C54.3725 1.89708 54.6589 2.59028 54.6589 3.41667C54.6589 4.24306 54.3725 4.93625 53.7996 5.49625C53.2287 6.05431 52.5206 6.33333 51.6752 6.33333H3.93494ZM12.8862 20.9167C12.0408 20.9167 11.3317 20.6367 10.7588 20.0767C10.1879 19.5186 9.90247 18.8264 9.90247 18C9.90247 17.1736 10.1879 16.4804 10.7588 15.9204C11.3317 15.3624 12.0408 15.0833 12.8862 15.0833H42.7239C43.5693 15.0833 44.2774 15.3624 44.8483 15.9204C45.4212 16.4804 45.7076 17.1736 45.7076 18C45.7076 18.8264 45.4212 19.5186 44.8483 20.0767C44.2774 20.6367 43.5693 20.9167 42.7239 20.9167H12.8862Z" fill="#7657CD"/>
</svg>
