<svg width="72" height="70" viewBox="0 0 72 70" fill="none" xmlns="http://www.w3.org/2000/svg">
<path d="M33.2391 52.5C32.3943 52.5 31.6866 52.22 31.1161 51.66C30.5436 51.1019 30.2574 50.4097 30.2574 49.5833C30.2574 48.7569 30.5436 48.0647 31.1161 47.5067C31.6866 46.9467 32.3943 46.6667 33.2391 46.6667H39.2024C40.0472 46.6667 40.7558 46.9467 41.3283 47.5067C41.8988 48.0647 42.1841 48.7569 42.1841 49.5833C42.1841 50.4097 41.8988 51.1019 41.3283 51.66C40.7558 52.22 40.0472 52.5 39.2024 52.5H33.2391ZM12.3674 23.3333C11.5226 23.3333 10.815 23.0543 10.2445 22.4962C9.67198 21.9362 9.38574 21.2431 9.38574 20.4167C9.38574 19.5903 9.67198 18.8971 10.2445 18.3371C10.815 17.779 11.5226 17.5 12.3674 17.5H60.074C60.9188 17.5 61.6265 17.779 62.197 18.3371C62.7695 18.8971 63.0557 19.5903 63.0557 20.4167C63.0557 21.2431 62.7695 21.9362 62.197 22.4962C61.6265 23.0543 60.9188 23.3333 60.074 23.3333H12.3674ZM21.3124 37.9167C20.4676 37.9167 19.759 37.6367 19.1865 37.0767C18.616 36.5186 18.3307 35.8264 18.3307 35C18.3307 34.1736 18.616 33.4804 19.1865 32.9204C19.759 32.3624 20.4676 32.0833 21.3124 32.0833H51.1291C51.9739 32.0833 52.6815 32.3624 53.252 32.9204C53.8245 33.4804 54.1107 34.1736 54.1107 35C54.1107 35.8264 53.8245 36.5186 53.252 37.0767C52.6815 37.6367 51.9739 37.9167 51.1291 37.9167H21.3124Z" fill="black"/>
</svg>
