<svg width="12" height="12" viewBox="0 0 12 12" fill="none" xmlns="http://www.w3.org/2000/svg">
<path fill-rule="evenodd" clip-rule="evenodd" d="M11.6434 1.37652C11.7147 1.30534 11.7713 1.22083 11.8099 1.1278C11.8485 1.03477 11.8684 0.935045 11.8684 0.834324C11.8685 0.733604 11.8487 0.633857 11.8102 0.54078C11.7717 0.447702 11.7153 0.363117 11.6441 0.291853C11.5729 0.220589 11.4884 0.164042 11.3954 0.125441C11.3024 0.0868393 11.2026 0.0669396 11.1019 0.0668777C11.0012 0.0668158 10.9015 0.0865929 10.8084 0.12508C10.7153 0.163567 10.6307 0.22001 10.5594 0.291186L5.93411 4.91652L1.31011 0.291186C1.16619 0.147262 0.970986 0.0664062 0.767447 0.0664063C0.563907 0.0664063 0.368704 0.147262 0.22478 0.291186C0.0808556 0.43511 1.51649e-09 0.630313 0 0.833853C-1.51649e-09 1.03739 0.0808556 1.2326 0.22478 1.37652L4.85011 6.00052L0.22478 10.6245C0.153516 10.6958 0.0969861 10.7804 0.0584183 10.8735C0.0198505 10.9666 0 11.0664 0 11.1672C0 11.268 0.0198505 11.3678 0.0584183 11.4609C0.0969861 11.554 0.153516 11.6386 0.22478 11.7099C0.368704 11.8538 0.563907 11.9346 0.767447 11.9346C0.868229 11.9346 0.968025 11.9148 1.06114 11.8762C1.15425 11.8376 1.23885 11.7811 1.31011 11.7099L5.93411 7.08452L10.5594 11.7099C10.7034 11.8536 10.8985 11.9343 11.1019 11.9342C11.3053 11.934 11.5004 11.8531 11.6441 11.7092C11.7879 11.5653 11.8685 11.3701 11.8684 11.1667C11.8683 10.9633 11.7874 10.7683 11.6434 10.6245L7.01811 6.00052L11.6434 1.37652Z" fill="#101010" fill-opacity="0.83"/>
</svg>
