<svg width="55" height="24" fill="none" xmlns="http://www.w3.org/2000/svg">
  <path d="M3.523 4.455V19H1.76V4.455h1.762Zm4.98 7.982V19H6.827V8.09h1.62v1.705h.141A3.115 3.115 0 0 1 9.753 8.46c.521-.34 1.193-.511 2.017-.511.739 0 1.385.151 1.94.454.553.299.984.753 1.292 1.364.307.606.461 1.373.461 2.301V19h-1.676v-6.818c0-.857-.222-1.525-.667-2.003-.445-.483-1.056-.724-1.833-.724-.535 0-1.013.116-1.434.348a2.49 2.49 0 0 0-.988 1.015c-.241.445-.362.985-.362 1.62Zm14.768-4.346v1.42h-5.654v-1.42h5.654Zm-4.006-2.614h1.676v10.398c0 .474.069.829.206 1.065.142.232.322.389.54.47.222.075.457.113.703.113.185 0 .336-.01.454-.029l.285-.056.34 1.505a3.415 3.415 0 0 1-.475.128 3.5 3.5 0 0 1-.774.071c-.474 0-.938-.102-1.393-.305a2.765 2.765 0 0 1-1.122-.93c-.293-.417-.44-.943-.44-1.578V5.477Zm10.984 13.75c-1.052 0-1.958-.232-2.72-.696-.758-.468-1.343-1.122-1.755-1.96-.407-.843-.61-1.823-.61-2.94 0-1.118.203-2.103.61-2.955.412-.857.985-1.524 1.719-2.003.739-.483 1.6-.724 2.585-.724.568 0 1.13.095 1.683.284a4.17 4.17 0 0 1 1.513.923c.455.422.817.98 1.087 1.676s.405 1.553.405 2.571v.71h-8.41v-1.448h6.705c0-.616-.123-1.165-.37-1.648a2.783 2.783 0 0 0-1.036-1.143c-.445-.28-.97-.42-1.577-.42-.668 0-1.245.166-1.733.498a3.27 3.27 0 0 0-1.115 1.278 3.756 3.756 0 0 0-.39 1.69v.966c0 .824.142 1.523.426 2.096a3.074 3.074 0 0 0 1.2 1.3c.511.293 1.105.44 1.783.44.44 0 .838-.062 1.193-.185.36-.128.67-.317.93-.568.26-.256.462-.573.604-.952l1.62.455a3.591 3.591 0 0 1-.86 1.448 4.19 4.19 0 0 1-1.492.966c-.591.228-1.257.341-1.995.341ZM37.315 19V8.09h1.62v1.65h.113c.2-.54.559-.978 1.08-1.314a3.178 3.178 0 0 1 1.761-.505 17.945 17.945 0 0 1 .881.028v1.705a4.97 4.97 0 0 0-.39-.064 3.844 3.844 0 0 0-.633-.05 2.96 2.96 0 0 0-1.42.335c-.412.217-.739.52-.98.909a2.45 2.45 0 0 0-.355 1.314V19h-1.677ZM51 16l-3.464-6h6.928L51 16Z" fill="#101010"/>
</svg>
