<svg width="64" height="63" viewBox="0 0 64 63" fill="none" xmlns="http://www.w3.org/2000/svg">
<rect width="64" height="63" rx="10" fill="#BC8DF9" fill-opacity="0.8"/>
<path d="M33.2 31.3724C34.36 30.0074 35.2504 28.4505 35.8712 26.7016C36.4904 24.9527 36.8 23.1398 36.8 21.2629C36.8 19.386 36.4904 17.5731 35.8712 15.8242C35.2504 14.0753 34.36 12.5184 33.2 11.1534C35.6 11.4946 37.6 12.625 39.2 14.5445C40.8 16.4641 41.6 18.7035 41.6 21.2629C41.6 23.8223 40.8 26.0617 39.2 27.9813C37.6 29.9008 35.6 31.0312 33.2 31.3724ZM46.4 51.9754V44.2973C46.4 42.7616 46.08 41.3011 45.44 39.9156C44.8 38.5284 43.96 37.3016 42.92 36.2352C44.96 37.003 46.8504 37.9944 48.5912 39.2092C50.3304 40.4258 51.2 42.1218 51.2 44.2973V51.9754H46.4ZM51.2 34.0598V28.941H46.4V23.8223H51.2V18.7035H56V23.8223H60.8V28.941H56V34.0598H51.2ZM22.4 31.5004C19.76 31.5004 17.5 30.498 15.62 28.4931C13.74 26.4883 12.8 24.0782 12.8 21.2629C12.8 18.4476 13.74 16.0375 15.62 14.0327C17.5 12.0278 19.76 11.0254 22.4 11.0254C25.04 11.0254 27.3 12.0278 29.18 14.0327C31.06 16.0375 32 18.4476 32 21.2629C32 24.0782 31.06 26.4883 29.18 28.4931C27.3 30.498 25.04 31.5004 22.4 31.5004ZM3.2 51.9754V44.8091C3.2 43.3588 3.5504 42.0254 4.2512 40.8088C4.9504 39.594 5.88 38.6666 7.04 38.0268C9.52 36.7045 12.04 35.7123 14.6 35.0502C17.16 34.3899 19.76 34.0598 22.4 34.0598C25.04 34.0598 27.64 34.3899 30.2 35.0502C32.76 35.7123 35.28 36.7045 37.76 38.0268C38.92 38.6666 39.8496 39.594 40.5488 40.8088C41.2496 42.0254 41.6 43.3588 41.6 44.8091V51.9754H3.2Z" fill="white"/>
</svg>
