<svg width="40" height="40" viewBox="0 0 40 40" fill="none" xmlns="http://www.w3.org/2000/svg">
<path d="M20.0237 24.2955L12.0994 30.9873L8.75 28.7342V31.2592L20 38.1642L31.25 31.2592V28.7342L27.9256 30.9873L20.0237 24.2955Z" fill="#1083DD"/>
<path d="M20 38.1637L31.25 31.2587V28.7337L27.9256 30.9868L20.0237 24.2949" fill="#0A6CBC"/>
<path d="M20 22.8527L8.50688 15.7002L0.625 22.0621L12.0244 29.5627L20 22.8527Z" fill="#1083DD"/>
<path d="M0.625 22.0615L12.0244 29.5621L20 22.8521" fill="#0A6CBC"/>
<path d="M20 22.853L27.9769 29.563L39.375 22.063L31.4944 15.6992L20 22.853Z" fill="#38B4F9"/>
<path d="M27.9766 29.563L39.3747 22.063L31.4941 15.6992" fill="#0594DB"/>
<path d="M27.9769 1.9375L20.0012 8.75H20L31.4944 15.6987L39.2531 9.41375L27.9769 1.9375Z" fill="#1083DD"/>
<path d="M31.4941 15.6987L39.3747 9.41375L27.9766 1.9375" fill="#0A6CBC"/>
<path d="M20.001 8.75L12.0241 1.9375L0.625977 9.38812L8.5066 15.8256L19.9997 8.75H20.001Z" fill="#38B4F9"/>
<path d="M8.5069 15.8006L20 8.75H20.0013L12.0244 1.9375" fill="#0594DB"/>
</svg>
