<svg width="62" height="60" viewBox="0 0 62 60" fill="none" xmlns="http://www.w3.org/2000/svg">
<rect width="61.2685" height="60" rx="10" fill="#F86451"/>
<path d="M26.6167 7.3917C22.3218 7.94644 18.2195 9.58934 14.9898 12.043C13.8339 12.9285 11.8961 14.8167 11.0575 15.8836C8.57575 19.0307 7.07989 22.5938 6.5926 26.5197C6.39996 28.0879 6.51328 31.2457 6.83058 32.7179C7.47652 35.833 8.62108 38.4574 10.3549 40.9004C14.1965 46.2772 20.3046 49.7017 27.2853 50.3738C29.6651 50.6085 30.413 50.4164 30.583 49.5416C30.719 48.9016 30.1637 48.2401 29.5064 48.2401C29.4044 48.2401 29.0305 48.1655 28.7018 48.0694C27.9879 47.8667 26.9113 46.9706 26.1747 45.9571C25.1662 44.5596 23.8176 41.3058 23.285 38.9802L23.0584 37.9987H24.4636C26.0728 37.9987 26.5487 37.8707 26.8207 37.3693C27.0473 36.9639 27.0473 36.6865 26.832 36.2918C26.5487 35.7797 26.2994 35.705 24.3956 35.6517L22.6391 35.5983L22.5031 34.4782C22.4238 33.8594 22.3104 32.3446 22.2424 31.107C22.1065 28.7707 22.2085 25.6983 22.5031 23.2766L22.6391 22.1564L29.3931 22.1244L36.1471 22.1031L36.2151 22.4125C36.2491 22.5832 36.3398 23.3619 36.4191 24.1407C36.5777 25.869 36.7024 26.2104 37.269 26.4344C37.7676 26.6371 38.2209 26.5517 38.5949 26.1997C38.9802 25.837 39.0028 25.6129 38.8329 23.938C38.7535 23.1379 38.6855 22.3698 38.6742 22.2311V21.9964H43.6491H48.6239L48.7599 22.3378C49.3719 23.938 49.8252 26.0823 49.9498 28.0239C50.0291 29.3148 50.1425 29.5922 50.6184 29.8375C51.0944 30.0829 51.6836 29.9869 52.0463 29.6242C52.3976 29.2721 52.4542 28.504 52.2729 26.8504C51.559 20.2788 47.9213 14.5394 42.1985 10.9015C39.5921 9.25863 36.8951 8.22381 33.518 7.58372C32.5208 7.40236 31.7955 7.34902 29.8351 7.31702C28.4979 7.30635 27.0473 7.33836 26.6167 7.3917ZM30.2657 9.67469C31.4216 10.1334 32.3848 11.1682 33.3821 13.0032C34.4246 14.9448 35.4219 17.6545 35.6712 19.2654L35.7505 19.7561H29.4044H23.0584L23.2737 18.8386C23.7496 16.7904 24.4976 14.7527 25.4155 13.0245C26.8547 10.3148 28.6678 9.05593 30.2657 9.67469ZM37.065 10.9122C41.224 12.4697 45.0429 15.5742 47.1734 19.1374L47.536 19.7561H42.8785H38.2323L38.1643 19.3507C37.677 16.6943 36.1585 12.7365 34.9232 10.9015C34.6966 10.5815 34.4926 10.2614 34.4473 10.1868C34.3566 10.0481 35.8298 10.4535 37.065 10.9122ZM24.2369 10.4215C22.945 12.2777 21.5738 15.5849 20.9279 18.3906L20.6106 19.7561H15.987C13.4486 19.7561 11.3635 19.7134 11.3635 19.6708C11.3635 19.6174 11.6581 19.1374 12.0208 18.6039C14.2759 15.2328 17.5169 12.6298 21.3925 11.0615C22.4804 10.6242 23.863 10.1868 24.2143 10.1654C24.4069 10.1548 24.4069 10.1654 24.2369 10.4215ZM20.1573 22.4978C19.6814 26.0183 19.6814 32.3125 20.1686 35.2463L20.2366 35.6517H15.1938H10.1623L9.7883 34.5635C9.15369 32.6539 8.94971 31.2884 8.93838 28.8774C8.93838 27.2878 8.98371 26.4877 9.13103 25.7303C9.35767 24.5781 9.81096 22.9566 10.0603 22.3805L10.2303 21.9964H15.2278H20.2366L20.1573 22.4978ZM20.8599 39.1188C21.5285 41.9992 22.9337 45.4771 24.0556 47.0133C24.2596 47.2907 24.3842 47.536 24.3502 47.568C24.2369 47.6854 21.7552 46.8533 20.4859 46.2665C17.4376 44.8797 14.7178 42.7354 12.8027 40.207C12.1907 39.4069 11.3635 38.1587 11.3635 38.0414C11.3635 38.02 13.4373 37.9987 15.987 37.9987H20.5993L20.8599 39.1188Z" fill="white"/>
<path d="M39.1841 27.9172C37.269 28.2479 35.0365 29.1547 33.5747 30.2002C32.6227 30.8723 31.1496 32.3232 30.5263 33.1873C29.7897 34.2008 28.9738 35.8863 28.6451 37.0918C28.2712 38.404 28.1465 40.6763 28.3618 42.0632C28.6225 43.7808 29.4837 45.8504 30.5489 47.3333C31.1496 48.1654 32.6454 49.6163 33.5747 50.2777C34.4926 50.9285 36.1811 51.7499 37.371 52.1233C39.966 52.9447 43.1051 52.9234 45.7228 52.0913C47.8306 51.4192 49.5191 50.4057 51.0943 48.8588C52.5335 47.4506 53.4288 46.0531 54.1087 44.1862C54.9813 41.7432 54.9926 38.7881 54.1314 36.3451C53.7347 35.2249 52.8621 33.6353 52.1709 32.7712C51.4683 31.8964 49.9271 30.4882 49.0432 29.9228C47.5247 28.9627 45.5528 28.2052 43.7963 27.9172C42.6405 27.7252 40.2833 27.7252 39.1841 27.9172ZM44.125 30.3069C48.1253 31.2884 51.117 34.1474 52.1256 37.956C52.4315 39.0975 52.3975 41.5191 52.0576 42.6926C51.4909 44.6876 50.6977 45.9891 49.1565 47.44C47.6266 48.8695 46.2101 49.6483 44.1136 50.1817C42.7764 50.5231 40.306 50.5231 38.9348 50.1817C36.861 49.6803 35.2972 48.8268 33.8013 47.3973C32.7247 46.3731 31.9541 45.285 31.4329 44.0688C30.8436 42.682 30.6963 41.9459 30.6963 40.2389C30.6849 38.6067 30.8776 37.6466 31.4442 36.3451C32.8834 33.0913 36.1811 30.6589 39.8867 30.1042C40.9066 29.9548 43.1391 30.0615 44.125 30.3069Z" fill="white"/>
<path d="M35.3879 33.4425C35.2292 33.5172 35.0026 33.7519 34.8892 33.9546L34.6626 34.3387L36.4758 40.2915C38.3456 46.479 38.4136 46.6497 39.0595 46.8098C39.5921 46.9271 39.9548 46.7458 40.9407 45.839L41.9152 44.9322L43.2638 46.223C44.805 47.6632 45.1676 47.8552 45.8362 47.5565C46.0515 47.4605 47.0487 46.5964 48.0573 45.6469C49.9838 43.8013 50.2104 43.4706 49.8931 42.8945C49.8138 42.7559 49.1452 42.0624 48.4086 41.3583L47.0601 40.0781L47.9213 39.278C48.386 38.8406 48.8506 38.3499 48.9412 38.1899C49.1905 37.7418 49.1339 37.2938 48.7939 36.931C48.4993 36.643 47.944 36.4723 42.3005 34.9574C38.9122 34.0506 36.0225 33.3039 35.8978 33.3039C35.7732 33.3039 35.5465 33.3679 35.3879 33.4425ZM45.4056 38.1685C45.5869 38.2219 45.5189 38.3179 44.9863 38.8406C44.2837 39.5021 44.0797 39.8968 44.1817 40.3235C44.227 40.4942 44.839 41.1663 45.6549 41.9451L47.0601 43.2893L46.2102 44.0787L45.3602 44.8788L44.023 43.6306C42.5952 42.2971 42.3912 42.1584 41.8472 42.1584C41.5639 42.1584 41.3373 42.2971 40.7593 42.8199C40.3627 43.1826 40.0114 43.4493 39.9774 43.4173C39.9094 43.3639 37.7676 36.355 37.7676 36.2056C37.7676 36.1309 43.3204 37.5605 45.4056 38.1685Z" fill="white"/>
</svg>
