<svg width="40" height="40" viewBox="0 0 40 40" fill="none" xmlns="http://www.w3.org/2000/svg">
<path d="M36.875 26.25L32.9115 33.1861C32.559 33.7546 32.064 34.221 31.4757 34.5391C30.8873 34.8573 30.226 35.0162 29.5574 35H10.4426C9.77396 35.0162 9.11267 34.8573 8.52433 34.5391C7.93598 34.221 7.44102 33.7546 7.0885 33.1861L5.46088 30.3375L12.1973 26.25H36.875Z" fill="#4285F4"/>
<path d="M15.4781 5.16211C14.5778 5.48514 13.8217 6.11761 13.3447 6.94661L3.69919 23.4496C3.34779 24.0187 3.15125 24.6698 3.12907 25.3383C3.10688 26.0069 3.2598 26.6695 3.57269 27.2607L5.48519 30.343L12.1977 26.2496L20.0003 12.8996L15.4781 5.16211Z" fill="#00AC47"/>
<path d="M12.1973 26.25H3.21002C3.27513 26.6045 3.39757 26.946 3.57252 27.2611L5.47502 30.329L5.46065 30.3378L7.08865 33.1862C7.47854 33.8307 8.06414 34.3336 8.76002 34.6217L12.1973 26.25Z" fill="#0066DA"/>
<path d="M24.5224 5.16211C25.4226 5.48511 26.1787 6.11759 26.6556 6.94661L36.3014 23.4496C36.6528 24.0187 36.8493 24.6698 36.8716 25.3383C36.8938 26.0068 36.7409 26.6695 36.428 27.2607L34.5161 30.343L27.8027 26.2496L20 12.8996L24.5224 5.16211Z" fill="#FFBA00"/>
<path d="M27.7889 26.25H36.7764C36.7113 26.6045 36.5888 26.946 36.4139 27.2611L34.5109 30.3291L34.5254 30.3379L32.8976 33.1862C32.5077 33.8306 31.9221 34.3336 31.2263 34.6217L27.7889 26.25Z" fill="#EA4435"/>
<path d="M24.5189 5.16775L24.5218 5.16275C24.3744 5.11168 24.2236 5.07063 24.0707 5.03987L19.9996 5L15.9284 5.03987C15.7755 5.07063 15.6247 5.11168 15.4773 5.16275C15.3199 5.22188 15.1667 5.29145 15.0186 5.371L19.9857 12.9L24.9708 5.37413C24.8249 5.29552 24.6739 5.22658 24.5189 5.16775Z" fill="#188038"/>
</svg>
