<svg width="60" height="60" viewBox="0 0 60 60" fill="none" xmlns="http://www.w3.org/2000/svg">
<rect width="60" height="60" rx="10" fill="#9747FF"/>
<path d="M31.125 29.8781C32.2125 28.5781 33.0473 27.0953 33.6292 25.4297C34.2097 23.7641 34.5 22.0375 34.5 20.25C34.5 18.4625 34.2097 16.7359 33.6292 15.0703C33.0473 13.4047 32.2125 11.9219 31.125 10.6219C33.375 10.9469 35.25 12.0234 36.75 13.8516C38.25 15.6797 39 17.8125 39 20.25C39 22.6875 38.25 24.8203 36.75 26.6484C35.25 28.4766 33.375 29.5531 31.125 29.8781ZM43.5 49.5V42.1875C43.5 40.725 43.2 39.334 42.6 38.0145C42 36.6934 41.2125 35.525 40.2375 34.5094C42.15 35.2406 43.9222 36.1847 45.5542 37.3418C47.1847 38.5004 48 40.1156 48 42.1875V49.5H43.5ZM48 32.4375V27.5625H43.5V22.6875H48V17.8125H52.5V22.6875H57V27.5625H52.5V32.4375H48ZM21 30C18.525 30 16.4063 29.0453 14.6438 27.1359C12.8813 25.2266 12 22.9312 12 20.25C12 17.5687 12.8813 15.2734 14.6438 13.3641C16.4063 11.4547 18.525 10.5 21 10.5C23.475 10.5 25.5938 11.4547 27.3562 13.3641C29.1187 15.2734 30 17.5687 30 20.25C30 22.9312 29.1187 25.2266 27.3562 27.1359C25.5938 29.0453 23.475 30 21 30ZM3 49.5V42.675C3 41.2938 3.3285 40.0238 3.9855 38.8652C4.641 37.7082 5.5125 36.825 6.6 36.2156C8.925 34.9563 11.2875 34.0113 13.6875 33.3808C16.0875 32.7519 18.525 32.4375 21 32.4375C23.475 32.4375 25.9125 32.7519 28.3125 33.3808C30.7125 34.0113 33.075 34.9563 35.4 36.2156C36.4875 36.825 37.359 37.7082 38.0145 38.8652C38.6715 40.0238 39 41.2938 39 42.675V49.5H3Z" fill="white"/>
</svg>
