<svg width="61" height="60" viewBox="0 0 61 60" fill="none" xmlns="http://www.w3.org/2000/svg">
<rect x="0.268494" width="60" height="60" rx="10" fill="#440FDB"/>
<path d="M45.5595 10.7812H36.713C35.8241 8.33438 33.496 6.5625 30.7447 6.5625C27.9934 6.5625 25.6653 8.33438 24.7764 10.7812H15.9299C14.8073 10.7812 13.7306 11.2257 12.9368 12.0169C12.143 12.8081 11.6971 13.8811 11.6971 15V44.5312C11.6971 45.6501 12.143 46.7232 12.9368 47.5144C13.7306 48.3055 14.8073 48.75 15.9299 48.75H45.5595C46.6821 48.75 47.7588 48.3055 48.5526 47.5144C49.3464 46.7232 49.7923 45.6501 49.7923 44.5312V15C49.7923 13.8811 49.3464 12.8081 48.5526 12.0169C47.7588 11.2257 46.6821 10.7812 45.5595 10.7812ZM30.7447 10.7812C31.306 10.7812 31.8443 11.0035 32.2412 11.3991C32.6381 11.7947 32.8611 12.3312 32.8611 12.8906C32.8611 13.4501 32.6381 13.9866 32.2412 14.3822C31.8443 14.7778 31.306 15 30.7447 15C30.1834 15 29.6451 14.7778 29.2482 14.3822C28.8513 13.9866 28.6283 13.4501 28.6283 12.8906C28.6283 12.3312 28.8513 11.7947 29.2482 11.3991C29.6451 11.0035 30.1834 10.7812 30.7447 10.7812ZM20.1627 19.2188H41.3267V15H45.5595V44.5312H15.9299V15H20.1627V19.2188Z" fill="white"/>
</svg>
