<svg width="60" height="60" viewBox="0 0 60 60" fill="none" xmlns="http://www.w3.org/2000/svg">
<g clip-path="url(#clip0_1567_753)">
<path d="M30 0C22.0453 0 14.4094 3.16266 8.78906 8.78672C3.16295 14.413 0.00155845 22.0433 0 30C0 37.9533 3.16406 45.5892 8.78906 51.2133C14.4094 56.8373 22.0453 60 30 60C37.9547 60 45.5906 56.8373 51.2109 51.2133C56.8359 45.5892 60 37.9533 60 30C60 22.0467 56.8359 14.4108 51.2109 8.78672C45.5906 3.16266 37.9547 0 30 0Z" fill="url(#paint0_linear_1567_753)"/>
<path d="M13.5797 29.6831C22.3266 25.8731 28.1579 23.3611 31.0735 22.1475C39.4079 18.682 41.1375 18.0801 42.2672 18.0597C42.5157 18.0558 43.0688 18.1172 43.4297 18.409C43.7297 18.6551 43.8141 18.9879 43.8563 19.2215C43.8938 19.455 43.9454 19.987 43.9032 20.4023C43.4532 25.1461 41.4985 36.6576 40.5047 41.9709C40.0875 44.219 39.2579 44.9728 38.4563 45.0464C36.7125 45.2067 35.3907 43.8951 33.7032 42.7894C31.0641 41.0583 29.5735 39.9811 27.0094 38.2922C24.0469 36.3403 25.9688 35.2673 27.6563 33.5142C28.0969 33.0553 35.775 26.0733 35.9204 25.44C35.9391 25.3608 35.9579 25.0654 35.7797 24.9098C35.6063 24.7537 35.3485 24.8072 35.161 24.8494C34.8938 24.9094 30.6797 27.6975 22.5047 33.2133C21.3094 34.0355 20.2266 34.4362 19.2516 34.4151C18.1829 34.3922 16.1204 33.8095 14.5875 33.3117C12.7125 32.7009 11.2172 32.378 11.3485 31.3406C11.4141 30.8006 12.1594 30.248 13.5797 29.6831Z" fill="white"/>
</g>
<defs>
<linearGradient id="paint0_linear_1567_753" x1="3000" y1="0" x2="3000" y2="6000" gradientUnits="userSpaceOnUse">
<stop stop-color="#2AABEE"/>
<stop offset="1" stop-color="#229ED9"/>
</linearGradient>
<clipPath id="clip0_1567_753">
<rect width="60" height="60" rx="10" fill="white"/>
</clipPath>
</defs>
</svg>
