<svg width="60" height="60" viewBox="0 0 60 60" fill="none" xmlns="http://www.w3.org/2000/svg">
<g clip-path="url(#clip0_1806_501)">
<path fill-rule="evenodd" clip-rule="evenodd" d="M30.0001 0C46.5687 0 60.0002 13.4314 60.0002 30.0001C60.0002 46.5687 46.5687 60.0002 30.0001 60.0002C13.4314 60.0002 0 46.5687 0 30.0001C0 13.4314 13.4314 0 30.0001 0ZM34.0274 21.5781C35.0671 21.7998 35.8641 22.1956 36.5451 22.8345C37.4211 23.663 37.9016 24.6658 38.1125 26.1069C38.2551 27.0463 38.1971 27.4158 37.8645 27.722C37.5531 28.007 36.9778 28.0176 36.6295 27.7485C36.3762 27.5584 36.297 27.3579 36.2389 26.8141C36.1703 26.091 36.0436 25.5843 35.8272 25.1145C35.3627 24.117 34.5446 23.5996 33.1618 23.4308C32.5125 23.3518 32.3172 23.2778 32.1061 23.0298C31.7209 22.5704 31.8687 21.8265 32.4017 21.5518C32.6024 21.4515 32.6868 21.4409 33.1301 21.4674C33.4044 21.4832 33.8111 21.5307 34.0274 21.5781ZM32.539 13.7666C34.3547 13.9936 35.822 14.4317 37.4318 15.2181C39.015 15.9941 40.0284 16.7276 41.3691 18.063C42.6253 19.3245 43.3221 20.2799 44.061 21.7629C45.0902 23.8318 45.6761 26.2914 45.7762 28.9991C45.8133 29.9227 45.7868 30.1286 45.5757 30.3925C45.1746 30.9046 44.2932 30.82 43.9924 30.2449C43.8974 30.0548 43.8709 29.8914 43.8394 29.1523C43.7865 28.0176 43.7075 27.2839 43.5491 26.4076C42.9263 22.9716 41.2794 20.2272 38.6509 18.2583C36.4605 16.6117 34.1963 15.8092 31.23 15.635C30.2273 15.577 30.053 15.54 29.826 15.3659C29.4038 15.0333 29.3827 14.2522 29.789 13.8881C30.037 13.6611 30.2112 13.6294 31.0716 13.6557C31.5202 13.6716 32.1799 13.7243 32.5388 13.7666V13.7664L32.539 13.7666ZM20.4734 14.3367C20.6583 14.4 20.9432 14.5478 21.1068 14.6533C22.1098 15.3182 24.9018 18.8916 25.8149 20.6755C26.3373 21.6942 26.5115 22.4489 26.3481 23.0083C26.179 23.6101 25.8993 23.9267 24.6483 24.9349C24.147 25.3413 23.6772 25.7582 23.6034 25.8691C23.4133 26.1436 23.2602 26.682 23.2602 27.0619C23.2656 27.9434 23.8354 29.5425 24.5851 30.7725C25.1656 31.7277 26.2055 32.9523 27.2346 33.8919C28.4433 35.0001 29.5094 35.7549 30.7129 36.3514C32.2593 37.122 33.2043 37.3173 33.8955 36.9953C34.0695 36.9162 34.2544 36.8106 34.3125 36.7632C34.3653 36.7155 34.7715 36.2195 35.2151 35.6706C36.0701 34.5939 36.2652 34.4196 36.8513 34.2191C37.5956 33.9659 38.3555 34.0343 39.1207 34.4249C39.7014 34.7258 40.968 35.5122 41.7861 36.0821C42.8627 36.8369 45.164 38.7159 45.4754 39.0908C46.0244 39.7664 46.1195 40.6318 45.7499 41.5872C45.3593 42.5952 43.8392 44.4849 42.7783 45.2924C41.8176 46.0208 41.1369 46.3004 40.2396 46.3427C39.5007 46.3796 39.1945 46.3162 38.2497 45.9256C30.8393 42.8696 24.9226 38.3094 20.2252 32.0444C17.7709 28.7719 15.9025 25.3782 14.625 21.8576C13.8809 19.8045 13.844 18.9124 14.4562 17.8621C14.7201 17.4188 15.8443 16.321 16.6624 15.7088C18.0241 14.6954 18.6523 14.3206 19.1538 14.2152C19.4969 14.1412 20.0932 14.1993 20.4732 14.3367H20.4734ZM32.9031 17.5932C36.107 18.0628 38.5877 19.5514 40.2133 21.9688C41.1264 23.3305 41.6963 24.9298 41.8916 26.6451C41.9602 27.2733 41.9602 28.4186 41.8864 28.6087C41.8176 28.7882 41.5961 29.0308 41.406 29.1312C41.2002 29.2367 40.7623 29.2263 40.5195 29.0996C40.113 28.8938 39.9915 28.5666 39.9915 27.6799C39.9915 26.3128 39.6378 24.8719 39.0257 23.753C38.3289 22.4757 37.3157 21.4202 36.0807 20.6863C35.0198 20.0529 33.4521 19.5833 32.0217 19.467C31.5044 19.4249 31.2194 19.3194 31.0241 19.0924C30.7233 18.7494 30.6915 18.285 30.9449 17.8996C31.2194 17.4721 31.6415 17.4035 32.9031 17.5934V17.5932Z" fill="#7B519D"/>
</g>
<defs>
<clipPath id="clip0_1806_501">
<rect width="60" height="60" fill="white"/>
</clipPath>
</defs>
</svg>
