<svg width="62" height="62" viewBox="0 0 62 62" fill="none" xmlns="http://www.w3.org/2000/svg">
<path d="M1.32306 30.6294C1.32161 35.8386 2.69336 40.925 5.30172 45.4082L1.07361 60.7261L16.872 56.6158C21.2416 58.9762 26.1374 60.213 31.1126 60.2133H31.1257C47.5496 60.2133 60.9191 46.9522 60.9261 30.6527C60.9293 22.7545 57.8322 15.3274 52.2052 9.73974C46.5792 4.15253 39.0968 1.07392 31.1245 1.07031C14.6986 1.07031 1.33008 14.3306 1.3233 30.6294" fill="url(#paint0_linear_1637_363)"/>
<path d="M23.4142 17.8188C22.8364 16.5444 22.2282 16.5187 21.6787 16.4963C21.2287 16.4771 20.7143 16.4785 20.2004 16.4785C19.686 16.4785 18.8502 16.6705 18.1438 17.4359C17.4366 18.202 15.4438 20.0534 15.4438 23.8188C15.4438 27.5845 18.2079 31.2235 18.5933 31.7346C18.9791 32.2448 23.9294 40.2193 31.7695 43.2871C38.2853 45.8365 39.6113 45.3294 41.0254 45.2016C42.4398 45.0742 45.5892 43.3507 46.2317 41.5635C46.8747 39.7766 46.8747 38.2449 46.6819 37.9248C46.4891 37.6059 45.9747 37.4144 45.2034 37.0318C44.4317 36.649 40.6396 34.7974 39.9326 34.5419C39.2254 34.2867 38.7113 34.1594 38.1969 34.9257C37.6825 35.6909 36.2054 37.4144 35.7551 37.9248C35.3054 38.4364 34.8552 38.5001 34.084 38.1173C33.3122 37.7332 30.8281 36.926 27.8809 34.3189C25.5879 32.2902 24.0398 29.785 23.5898 29.0186C23.1398 28.2535 23.5416 27.8387 23.9284 27.4573C24.275 27.1144 24.7 26.5636 25.0861 26.1169C25.4707 25.6699 25.599 25.351 25.8562 24.8406C26.1137 24.3297 25.9848 23.8827 25.7923 23.4999C25.599 23.1171 24.1001 19.332 23.4142 17.8188Z" fill="white"/>
<defs>
<linearGradient id="paint0_linear_1637_363" x1="2993.7" y1="5966.65" x2="2993.7" y2="1.07031" gradientUnits="userSpaceOnUse">
<stop stop-color="#1FAF38"/>
<stop offset="1" stop-color="#60D669"/>
</linearGradient>
</defs>
</svg>
