<svg width="41" height="30" viewBox="0 0 41 30" fill="none" xmlns="http://www.w3.org/2000/svg">
<path fill-rule="evenodd" clip-rule="evenodd" d="M39.6971 5.66933C38.0465 3.58384 34.0541 2.92234 31.1471 2.71328C29.858 2.61835 28.5733 2.35981 27.3266 1.94372C26.7632 1.76396 26.1997 1.53672 25.6495 1.29232C23.2054 0.181408 19.1733 -0.887091 14.822 1.15295C14.6836 1.22264 14.5487 1.27717 14.4226 1.35292C14.2886 1.40846 14.1528 1.48724 14.0144 1.55692C9.75917 3.82521 7.69771 7.94266 6.74898 10.7533C6.53207 11.3815 6.29489 12.0096 6.02685 12.6055C5.44844 13.9355 4.74923 15.1868 3.93452 16.3351C2.08996 18.9104 -0.190167 22.7108 0.012629 25.5103C0.0452526 26.0031 0.154586 26.4677 0.36179 26.8838C0.764737 27.7109 1.41721 28.1472 1.91803 28.4168C5.56659 30.4165 14.0223 29.4066 23.1058 24.1085C32.6698 20.0728 39.0605 13.6518 40.25 9.23032C40.4175 8.62638 40.5806 7.78108 40.3258 6.88124C40.2032 6.43384 39.9828 6.03593 39.6971 5.66933Z" fill="#263238"/>
<path fill-rule="evenodd" clip-rule="evenodd" d="M40.2774 6.68901C42.1334 11.4488 34.6176 19.822 23.5661 25.3544C12.5146 30.8868 1.74882 31.6462 0.254303 26.7229C-0.807289 23.2265 6.26235 13.8918 17.3138 8.36043C28.3653 2.82909 39.0227 3.4714 40.2774 6.68901Z" fill="#2962FF"/>
<path fill-rule="evenodd" clip-rule="evenodd" d="M11.5261 23.9208C10.7493 21.8847 14.6219 17.9814 20.1767 15.2001C25.7315 12.4187 30.8632 11.8168 31.64 13.8528C32.4168 15.8888 28.5442 19.7922 22.9894 22.5735C17.4346 25.3548 12.3029 25.9578 11.5261 23.9208Z" fill="white"/>
</svg>
