<svg width="11" height="16" fill="none" xmlns="http://www.w3.org/2000/svg">
  <path d="M8.716 4.09a2.23 2.23 0 0 0-1.037-1.675c-.606-.398-1.35-.597-2.23-.597-.644 0-1.208.104-1.69.313-.479.208-.853.494-1.123.86a2.06 2.06 0 0 0-.397 1.242c0 .388.092.722.277 1.001.189.275.43.505.724.69.294.18.601.328.923.447.322.113.618.206.888.277l1.477.397c.38.1.8.237 1.265.412.468.176.916.415 1.342.718.43.298.786.682 1.065 1.15.28.469.42 1.044.42 1.726 0 .786-.207 1.496-.619 2.13-.407.635-1.003 1.14-1.79 1.514-.78.374-1.73.56-2.847.56-1.042 0-1.944-.167-2.706-.504-.758-.336-1.354-.804-1.79-1.406-.431-.601-.675-1.3-.732-2.095h1.819c.047.55.232 1.004.554 1.364a3 3 0 0 0 1.235.795c.502.17 1.042.256 1.62.256.672 0 1.276-.11 1.81-.327.536-.222.96-.53 1.272-.923.313-.398.469-.862.469-1.392 0-.483-.135-.876-.405-1.18a2.97 2.97 0 0 0-1.065-.738c-.44-.19-.917-.355-1.428-.497l-1.79-.511c-1.136-.327-2.036-.793-2.699-1.4C.866 6.091.534 5.298.534 4.318c0-.814.22-1.524.66-2.13.446-.611 1.042-1.085 1.79-1.421.753-.34 1.594-.511 2.522-.511.937 0 1.77.168 2.5.504.729.331 1.306.786 1.733 1.364.43.577.658 1.233.681 1.967H8.716Z" fill="#101010"/>
  <path d="M-1 8.452h12.756v1.363H-1V8.452Z" fill="#101010"/>
</svg>
