<svg width="16" height="24" viewBox="0 0 16 24" fill="none" xmlns="http://www.w3.org/2000/svg">
<path d="M11.2159 8.09091C11.1307 7.37121 10.785 6.8125 10.179 6.41477C9.57292 6.01705 8.82955 5.81818 7.94886 5.81818C7.30492 5.81818 6.74148 5.92235 6.25852 6.13068C5.7803 6.33901 5.40625 6.62547 5.13636 6.99006C4.87121 7.35464 4.73864 7.76894 4.73864 8.23295C4.73864 8.62121 4.83097 8.95502 5.01562 9.23438C5.20502 9.509 5.4465 9.73864 5.74006 9.9233C6.03362 10.1032 6.34138 10.2524 6.66335 10.3707C6.98532 10.4844 7.28125 10.5767 7.55114 10.6477L9.02841 11.0455C9.4072 11.1449 9.8286 11.2822 10.2926 11.4574C10.7614 11.6326 11.2088 11.8717 11.6349 12.1747C12.0658 12.473 12.4209 12.8565 12.7003 13.3253C12.9796 13.794 13.1193 14.3693 13.1193 15.0511C13.1193 15.8371 12.9134 16.5473 12.5014 17.1818C12.0942 17.8163 11.4976 18.3205 10.7116 18.6946C9.9304 19.0687 8.98106 19.2557 7.86364 19.2557C6.82197 19.2557 5.91998 19.0876 5.15767 18.7514C4.40009 18.4152 3.8035 17.9465 3.3679 17.3452C2.93703 16.7438 2.69318 16.0455 2.63636 15.25H4.45455C4.50189 15.7992 4.68655 16.2538 5.00852 16.6136C5.33523 16.9687 5.74716 17.2339 6.24432 17.4091C6.74621 17.5795 7.28598 17.6648 7.86364 17.6648C8.53598 17.6648 9.13968 17.5559 9.67472 17.3381C10.2098 17.1155 10.6335 16.8078 10.946 16.4148C11.2585 16.017 11.4148 15.553 11.4148 15.0227C11.4148 14.5398 11.2798 14.1468 11.0099 13.8438C10.7401 13.5407 10.3849 13.2945 9.9446 13.1051C9.50426 12.9157 9.02841 12.75 8.51705 12.608L6.72727 12.0966C5.59091 11.7699 4.69129 11.3035 4.02841 10.6974C3.36553 10.0914 3.03409 9.2983 3.03409 8.31818C3.03409 7.50379 3.25426 6.79356 3.6946 6.1875C4.13968 5.5767 4.73627 5.10322 5.48438 4.76705C6.23722 4.42614 7.07765 4.25568 8.00568 4.25568C8.94318 4.25568 9.77652 4.42377 10.5057 4.75994C11.2348 5.09138 11.8125 5.54593 12.2386 6.12358C12.6695 6.70123 12.8968 7.35701 12.9205 8.09091H11.2159Z" fill="#101010"/>
<path d="M1.5 12.4517H14.2557V13.8153H1.5V12.4517Z" fill="#101010"/>
</svg>
