<svg width="31" height="30" viewBox="0 0 31 30" fill="none" xmlns="http://www.w3.org/2000/svg">
<path d="M19.8739 17.4998H18.8864L18.5364 17.1623C19.3176 16.2548 19.8885 15.1858 20.2083 14.0319C20.5281 12.8779 20.5889 11.6675 20.3864 10.4873C19.7989 7.01235 16.8989 4.23735 13.3989 3.81235C12.1684 3.65668 10.9186 3.78456 9.74515 4.18621C8.5717 4.58785 7.50568 5.25262 6.62866 6.12964C5.75164 7.00665 5.08688 8.07267 4.68523 9.24613C4.28358 10.4196 4.1557 11.6694 4.31137 12.8998C4.73637 16.3998 7.51137 19.2998 10.9864 19.8873C12.1666 20.0899 13.3769 20.0291 14.5309 19.7093C15.6848 19.3895 16.7538 18.8185 17.6614 18.0373L17.9989 18.3873V19.3748L23.3114 24.6873C23.8239 25.1998 24.6614 25.1998 25.1739 24.6873C25.6864 24.1748 25.6864 23.3373 25.1739 22.8248L19.8739 17.4998ZM12.3739 17.4998C9.26137 17.4998 6.74887 14.9873 6.74887 11.8748C6.74887 8.76235 9.26137 6.24985 12.3739 6.24985C15.4864 6.24985 17.9989 8.76235 17.9989 11.8748C17.9989 14.9873 15.4864 17.4998 12.3739 17.4998Z" fill="#1E1D1D"/>
</svg>
