<svg width="30" height="30" viewBox="0 0 30 30" fill="none" xmlns="http://www.w3.org/2000/svg">
<path d="M21.8333 19.3338H20.5166L20.05 18.8838C21.0915 17.6737 21.8528 16.2484 22.2792 14.7098C22.7056 13.1712 22.7867 11.5574 22.5166 9.98378C21.7333 5.35045 17.8666 1.65045 13.2 1.08378C11.5593 0.876223 9.89294 1.04673 8.32833 1.58226C6.76373 2.11779 5.34237 3.00414 4.17301 4.1735C3.00366 5.34285 2.1173 6.76422 1.58177 8.32882C1.04624 9.89343 0.875734 11.5598 1.08329 13.2004C1.64996 17.8671 5.34996 21.7338 9.98329 22.5171C11.5569 22.7872 13.1707 22.7061 14.7093 22.2797C16.2479 21.8533 17.6732 21.092 18.8833 20.0504L19.3333 20.5171V21.8338L26.4166 28.9171C27.1 29.6004 28.2166 29.6004 28.9 28.9171C29.5833 28.2338 29.5833 27.1171 28.9 26.4338L21.8333 19.3338ZM11.8333 19.3338C7.68329 19.3338 4.33329 15.9838 4.33329 11.8338C4.33329 7.68378 7.68329 4.33378 11.8333 4.33378C15.9833 4.33378 19.3333 7.68378 19.3333 11.8338C19.3333 15.9838 15.9833 19.3338 11.8333 19.3338Z" fill="#1E1D1D"/>
</svg>
