<svg width="15" height="20" fill="none" xmlns="http://www.w3.org/2000/svg">
  <path d="M11.307 2.455h1.761v9.63c0 .994-.234 1.882-.703 2.664-.464.776-1.12 1.39-1.967 1.84-.848.444-1.842.667-2.983.667s-2.136-.223-2.983-.668c-.848-.45-1.506-1.063-1.975-1.84-.464-.78-.696-1.668-.696-2.663v-9.63h1.762v9.488c0 .71.156 1.343.468 1.896.313.55.758.983 1.336 1.3.582.313 1.278.469 2.088.469s1.505-.156 2.088-.469a3.302 3.302 0 0 0 1.335-1.3c.313-.553.469-1.186.469-1.896V2.455Z" fill="#101010"/>
  <path stroke="#000" d="M0 19.5h15"/>
</svg>
