<svg width="13" height="16" viewBox="0 0 13 16" fill="none" xmlns="http://www.w3.org/2000/svg">
<path d="M10.3068 0.454545H12.0682V10.0852C12.0682 11.0795 11.8338 11.9673 11.3651 12.7486C10.901 13.5251 10.2453 14.1383 9.39773 14.5881C8.55019 15.0331 7.55587 15.2557 6.41477 15.2557C5.27367 15.2557 4.27936 15.0331 3.43182 14.5881C2.58428 14.1383 1.92614 13.5251 1.45739 12.7486C0.993371 11.9673 0.761364 11.0795 0.761364 10.0852V0.454545H2.52273V9.94318C2.52273 10.6534 2.67898 11.2855 2.99148 11.8395C3.30398 12.3887 3.74905 12.822 4.3267 13.1392C4.90909 13.4517 5.60511 13.608 6.41477 13.608C7.22443 13.608 7.92045 13.4517 8.50284 13.1392C9.08523 12.822 9.5303 12.3887 9.83807 11.8395C10.1506 11.2855 10.3068 10.6534 10.3068 9.94318V0.454545Z" fill="#101010"/>
<path d="M-1 18.9773H13.8295V20.3409H-1V18.9773Z" fill="#101010"/>
</svg>
