<svg width="24" height="24" viewBox="0 0 24 24" fill="none" xmlns="http://www.w3.org/2000/svg">
<path d="M3.25 23.25C2.5625 23.25 1.97375 23.005 1.48375 22.515C0.993752 22.025 0.749169 21.4367 0.750002 20.75V5.12501C0.750002 4.81251 0.802085 4.53126 0.906252 4.28126C1.01042 4.03126 1.14584 3.79168 1.3125 3.56251L3.0625 1.43751C3.22917 1.20834 3.4375 1.03626 3.6875 0.921259C3.9375 0.806259 4.20834 0.749176 4.5 0.750009H19.5C19.7917 0.750009 20.0625 0.807092 20.3125 0.921259C20.5625 1.03543 20.7708 1.20751 20.9375 1.43751L22.6875 3.56251C22.8542 3.79168 22.9896 4.03126 23.0938 4.28126C23.1979 4.53126 23.25 4.81251 23.25 5.12501V20.75C23.25 21.4375 23.005 22.0263 22.515 22.5163C22.025 23.0063 21.4367 23.2508 20.75 23.25H3.25ZM3.75 4.50001H20.25L19.1875 3.25001H4.8125L3.75 4.50001ZM3.25 7.00001V20.75H20.75V7.00001H3.25ZM12 19.5L17 14.5L15.25 12.75L13.25 14.75V9.50001H10.75V14.75L8.75 12.75L7 14.5L12 19.5Z" fill="#1E1D1D"/>
</svg>
