<svg width="45" height="37" fill="none" xmlns="http://www.w3.org/2000/svg">
  <path d="M12.348 2h.001c1.643-.001 3.26.383 4.712 1.118a10.072 10.072 0 0 1 3.63 3.09 2 2 0 0 0 3.243.002C25.77 3.672 28.815 2 32.28 2c5.673 0 10.18 4.464 10.18 9.857 0 5.14-3.155 10.313-7.568 14.651-4.14 4.07-9.07 7.09-12.578 8.376-3.508-1.287-8.438-4.306-12.578-8.376-4.414-4.338-7.569-9.511-7.569-14.651C2.167 6.464 6.674 2 12.347 2Z" stroke="#fff" stroke-width="4" stroke-linecap="round" stroke-linejoin="round"/>
</svg>
