<svg xmlns="http://www.w3.org/2000/svg" viewBox="0 0 1618 1186"><svg viewBox="0 0 1618 593" height="593" width="1618" y="0"><g transform="matrix(1 0 0 1 0 0)"><path d="M26.7389 115.835L1617.29 367.911" stroke="#9C2DA3" stroke-opacity="0.5" stroke-width="2"/><path d="M19.7389 130.835L1610.29 382.911" stroke="#9C2DA3" stroke-opacity="0.5" stroke-width="2"/><path d="M15.7389 146.835L1606.29 398.911" stroke="#9C2DA3" stroke-opacity="0.5" stroke-width="2"/><path d="M11.7389 161.835L1602.29 413.911" stroke="#9C2DA3" stroke-opacity="0.5" stroke-width="2"/><path d="M8.73885 177.835L1599.29 429.911" stroke="#9C2DA3" stroke-opacity="0.5" stroke-width="2"/><path d="M4.73885 193.835L1595.29 445.911" stroke="#9C2DA3" stroke-opacity="0.5" stroke-width="2"/><path d="M0.738852 209.835L1591.29 461.911" stroke="#9C2DA3" stroke-opacity="0.5" stroke-width="2"/></g></svg><svg viewBox="0 0 1618 593" height="593" width="1618" y="593"><g transform="matrix(1 0 0 1 0 0)"><path d="M1591.26 115.835L0.709322 367.911" stroke="#440FDB" stroke-opacity="0.5" stroke-width="2"/><path d="M1598.26 130.835L7.70932 382.911" stroke="#440FDB" stroke-opacity="0.5" stroke-width="2"/><path d="M1602.26 146.835L11.7093 398.911" stroke="#440FDB" stroke-opacity="0.5" stroke-width="2"/><path d="M1606.26 161.835L15.7093 413.911" stroke="#440FDB" stroke-opacity="0.5" stroke-width="2"/><path d="M1609.26 177.835L18.7093 429.911" stroke="#440FDB" stroke-opacity="0.5" stroke-width="2"/><path d="M1613.26 193.835L22.7093 445.911" stroke="#440FDB" stroke-opacity="0.5" stroke-width="2"/><path d="M1617.26 209.835L26.7093 461.911" stroke="#440FDB" stroke-opacity="0.5" stroke-width="2"/></g></svg></svg>