<svg width="51" height="44" viewBox="0 0 51 44" fill="none" xmlns="http://www.w3.org/2000/svg">
<path d="M29.8739 24.4998H28.8864L28.5364 24.1623C29.3176 23.2548 29.8885 22.1858 30.2083 21.0319C30.5281 19.8779 30.5889 18.6675 30.3864 17.4873C29.7989 14.0123 26.8989 11.2373 23.3989 10.8123C22.1684 10.6567 20.9186 10.7846 19.7452 11.1862C18.5717 11.5879 17.5057 12.2526 16.6287 13.1296C15.7516 14.0067 15.0869 15.0727 14.6852 16.2461C14.2836 17.4196 14.1557 18.6694 14.3114 19.8998C14.7364 23.3998 17.5114 26.2998 20.9864 26.8873C22.1666 27.0899 23.3769 27.0291 24.5309 26.7093C25.6848 26.3895 26.7538 25.8185 27.6614 25.0373L27.9989 25.3873V26.3748L33.3114 31.6873C33.8239 32.1998 34.6614 32.1998 35.1739 31.6873C35.6864 31.1748 35.6864 30.3373 35.1739 29.8248L29.8739 24.4998ZM22.3739 24.4998C19.2614 24.4998 16.7489 21.9873 16.7489 18.8748C16.7489 15.7623 19.2614 13.2498 22.3739 13.2498C25.4864 13.2498 27.9989 15.7623 27.9989 18.8748C27.9989 21.9873 25.4864 24.4998 22.3739 24.4998Z" fill="#1E1D1D"/>
<path d="M0.5 20C0.5 9.23045 9.23045 0.5 20 0.5H31C41.7696 0.5 50.5 9.23045 50.5 20V24C50.5 34.7696 41.7696 43.5 31 43.5H20C9.23045 43.5 0.5 34.7696 0.5 24V20Z" stroke="#9D0095"/>
</svg>
